<?xml version="1.0" encoding="utf-8"?>
<!-- Generator: Adobe Illustrator 20.1.0, SVG Export Plug-In . SVG Version: 6.00 Build 0)  -->
<svg version="1.1" id="Layer_1" xmlns="http://www.w3.org/2000/svg" xmlns:xlink="http://www.w3.org/1999/xlink" x="0px" y="0px"
	 viewBox="0 0 612 612" style="enable-background:new 0 0 612 612;" xml:space="preserve">
<style type="text/css">
	.st0{fill:#FFFFFF;}
</style>
<g>
	<path class="st0" d="M75.3,0c19.7,2,37.9,3.1,54.6,3.4c16.7,0.3,35.3,0.5,55.6,0.5c19.7,0,39.7-0.2,60-0.5
		c20.3-0.3,40.3-1.5,60-3.4v11.8c-14.4,1.3-28.2,5.6-41.3,12.8c-13.1,7.2-19.7,19-19.7,35.4c0,13.1,4.3,30.7,12.8,52.6
		c8.5,22,18.5,45.6,30,70.8c11.5,25.3,23.3,51,35.4,77.2c12.1,26.2,21.8,50.5,29,72.8c3.3-6.5,8.4-17.4,15.3-32.5
		c6.9-15.1,14.8-32.3,23.6-51.7c8.9-19.3,17.7-39.5,26.6-60.5c8.9-21,17-40.7,24.6-59c7.5-18.4,13.8-34.4,18.7-48.2
		c4.9-13.8,7.4-23,7.4-27.6c0-7.9-1.8-14.1-5.4-18.7c-3.6-4.6-8-8.4-13.3-11.3c-5.3-3-11.5-5.2-18.7-6.9c-7.2-1.6-14.1-3.4-20.7-5.4
		V0c15.1,2,30.2,3.1,45.3,3.4c15.1,0.3,30.5,0.5,46.2,0.5c15.1,0,29.8-0.2,44.3-0.5C560,3.1,574.8,2,589.9,0v11.8
		c-18.4,2.6-36.3,13.9-53.6,33.9c-17.4,20-33.5,42.8-48.2,68.4c-14.8,25.6-27.7,50.7-38.9,75.3C438,214,429.5,232.2,423.6,244
		C396,301.1,371.1,350,348.8,390.6c-22.3,40.7-42.5,74.6-60.5,101.8c-18,27.2-34.4,48.7-49.2,64.4c-14.8,15.7-28.9,27.7-42.3,35.9
		c-13.5,8.2-26.6,13.4-39.4,15.7c-12.8,2.3-26.1,3.4-39.8,3.4c-11.8,0-23.4-1.6-34.9-4.9c-11.5-3.3-21.6-8.4-30.5-15.3
		c-8.9-6.9-16.1-15.6-21.6-26.1c-5.6-10.5-8.4-23-8.4-37.4c0-13.1,4.8-24.9,14.3-35.4c9.5-10.5,20.8-15.7,33.9-15.7
		c15.1,0,27.2,3.8,36.4,11.3c9.2,7.5,13.8,19.2,13.8,34.9c0,11.1-2.6,20.5-7.9,28c-5.3,7.5-7.9,12.9-7.9,16.2
		c0,3.9,4.8,6.4,14.3,7.4c9.5,1,18.8,1.5,28,1.5c19.7,0,39-8,58.1-24.1c19-16.1,35.9-34.4,50.7-55.1c14.8-20.7,26.7-40.3,35.9-59
		c9.2-18.7,13.8-30.7,13.8-35.9c0-2-2.3-8.7-6.9-20.2c-4.6-11.5-10.8-26.2-18.7-44.3c-7.9-18-16.7-38.2-26.6-60.5
		c-9.8-22.3-19.7-44.4-29.5-66.4c-9.8-22-19.7-43.3-29.5-64c-9.8-20.7-18.4-38.2-25.6-52.6c-6.6-15.1-12.1-27.2-16.7-36.4
		c-4.6-9.2-10.2-16.6-16.7-22.1c-6.6-5.6-14.4-10-23.6-13.3c-9.2-3.3-21.3-6.9-36.4-10.8V0z"/>
</g>
</svg>
