<?xml version="1.0" encoding="utf-8"?>
<!-- Generator: Adobe Illustrator 20.1.0, SVG Export Plug-In . SVG Version: 6.00 Build 0)  -->
<svg version="1.1" id="Layer_1" xmlns="http://www.w3.org/2000/svg" xmlns:xlink="http://www.w3.org/1999/xlink" x="0px" y="0px"
	 viewBox="0 0 612 612" style="enable-background:new 0 0 612 612;" xml:space="preserve">
<style type="text/css">
	.st0{fill:#FFFFFF;}
</style>
<g>
	<path class="st0" d="M186.7,598c-6.5-1.7-13.2-4-19.9-6.9V420c5.9-2.5,11.7-4.9,17.4-7.3c5.7-2.3,11.9-3.9,18.6-4.7l1.9-1.3
		l3.8-5.7v-49.9l6.9-5c5,0,10.2-1.2,15.5-3.5c5.3-2.3,10.6-4.5,16.1-6.6c2.1-8,2.7-16.6,1.9-25.9c-0.8-9.2-0.8-18.3,0-27.1
		c5.9-3.8,12.2-6.5,18.9-8.2c6.7-1.7,13.5-4,20.2-6.9l3.2-3.8v-49.9l1.9-3.2c5-1.7,10.7-3.5,17-5.4c6.3-1.9,12.4-4.1,18.3-6.6
		c1.3-1.7,2.7-3.6,4.4-5.7v-65.6l-3.2-2.5c-26.9,5.5-53.6,14.9-80.1,28.4c-26.5,12.6-53.4,11.4-80.8-3.8l-1.9-3.2V89.3
		c0.4-0.4,1.3-0.9,2.5-1.6c1.3-0.6,2.7-1.4,4.4-2.2c25.2-8,50.9-16.5,77-25.6c26.1-9,52-17.6,77.6-25.6c11.8-2.9,23.1-6.2,34.1-9.8
		c10.9-3.6,21.9-7.7,32.8-12.3c21.5-9.2,43.3-7.6,65.6,5l2.5,5.7v166.6l-6.9,5c-4.6,0.4-9.7,1.7-15.1,3.8c-5.5,2.1-10.9,4-16.4,5.7
		l-3.2,4.4v49.2c-3.8,3.8-9.1,6.5-15.8,8.2c-6.7,1.7-12.8,3.4-18.3,5l-2.5,0.6c-0.8,0-2.1,2.1-3.8,6.3v49.9
		c-5.5,3.4-11.8,5.8-18.9,7.3c-7.2,1.5-13.9,3.9-20.2,7.3l-2.5,3.8V396c-1.7,0-2.8,0.5-3.5,1.6c-0.6,1.1-1.8,2.2-3.5,3.5
		c-6.3,1.3-17,4.4-32.2,9.5l-2.5,4.4v65.6l3.8,3.8c13-2.9,26.2-6.7,39.4-11.4c13.3-4.6,26.6-9.9,40.1-15.8
		c27.3-12.6,54.5-11.8,81.4,2.5c0.8,9.7,1,19.4,0.6,29c-0.4,9.7-0.4,19.8,0,30.3l-1.9,3.2c-11.4,4.6-22.8,8.7-34.4,12.3
		c-11.6,3.6-23.3,7.5-35,11.7c-30.7,9.7-61.1,19.8-91.2,30.3c-30.1,10.5-60.3,20.2-90.6,29h-3.8C199.8,602.2,193.2,599.7,186.7,598z
		 M206.6,481.2c-0.8-7.1-0.8-14.1,0-20.8c0.8-6.7,0.4-13.7-1.3-20.8c-5.5-2.5-10.5-4.2-15.1-5c-4.6-0.8-9.1-2.3-13.3-4.4l-2.5,1.9
		c0.8,7.6,0.8,14.6,0,21.1c-0.8,6.5-0.2,13.4,1.9,20.5c4.6,2.5,9.2,4.3,13.9,5.4c4.6,1.1,9.2,2.8,13.9,5.4L206.6,481.2z
		 M206.6,537.4c-0.8-7.6-0.8-14.7,0-21.5c0.8-6.7,0.4-13.7-1.3-20.8c-5.5-1.7-10.5-3.4-15.1-5c-4.6-1.7-9.1-3.6-13.3-5.7l-2.5,1.9
		c0.4,7.6,0.4,14.8,0,21.8c-0.4,6.9-0.2,13.6,0.6,19.9c5,2.5,9.9,4.3,14.5,5.4c4.6,1.1,9,3.1,13.3,6L206.6,537.4z M206.6,149.9V112
		l-2.5-4.4c-4.6-1.7-9.2-3.2-13.6-4.4c-4.4-1.3-8.5-2.5-12.3-3.8l-3.8,0.6v39.8c0.8,2.5,2.5,4.2,5,5c3.4,0.4,6.9,1.4,10.7,2.8
		c3.8,1.5,8,3.3,12.6,5.4L206.6,149.9z M206.6,591.7c-0.8-7.6-0.8-14.6,0-21.1c0.8-6.5,0.4-13.4-1.3-20.5c-5.5-2.5-10.5-4.2-15.1-5
		c-4.6-0.8-9.1-2.5-13.3-5l-2.5,1.9v39.8c4.2,3.8,9,6.3,14.5,7.6c5.5,1.3,10.5,2.9,15.1,5L206.6,591.7z M211.6,430.7
		c4.2-1.3,8.4-2.8,12.6-4.7c4.2-1.9,8-2.8,11.4-2.8l-1.3-1.9c-4.2,0-8.3-1-12.3-3.2c-4-2.1-7.7-3.6-11-4.4c-4.6,2.5-9.2,4.2-13.6,5
		c-4.4,0.8-8.3,2.3-11.7,4.4c4.6,0.4,8.8,1.6,12.6,3.5c3.8,1.9,7.6,3.3,11.4,4.1H211.6z M223.6,95.3c4.2-0.6,8.2-2,12-4.1
		c-4.2-2.5-8.4-4.1-12.6-4.7c-4.2-0.6-8.2-1.8-12-3.5c-2.1,1.7-4,2.6-5.7,2.8c-1.7,0.2-3.2,0.7-4.4,1.6c-5.9,0-10.5,1.7-13.9,5
		c4.2,0.4,8.2,1.6,12,3.5c3.8,1.9,7.8,3.3,12,4.1C215.2,97.5,219.4,95.9,223.6,95.3z M247.6,413.1v-37.9l-2.5-5
		c-5.9-2.1-11-3.9-15.5-5.4c-4.4-1.5-8.1-3-11-4.7l-2.5,2.5c0.4,7.2,0.4,14.3,0,21.5c-0.4,7.2-0.2,13.9,0.6,20.2
		c5,2.5,9.9,4.3,14.5,5.4c4.6,1.1,9.2,2.8,13.9,5.4L247.6,413.1z M264.9,81.7c4.4-0.4,8.3-2.1,11.7-5c-5.5-0.8-10.9-2.4-16.4-4.7
		c-5.5-2.3-10.5-2.6-15.1-0.9c-2.1,0.8-6.9,2.7-14.5,5.7l-1.9,1.9c4.2,0.4,8.2,1.6,12,3.5c3.8,1.9,7.8,3.3,12,4.1
		C256.4,83.6,260.5,82.2,264.9,81.7z M264.6,357.2c4.6-1,8.8-2.2,12.6-3.5c-3.8-2.1-7.7-3.7-11.7-4.7c-4-1-7.7-2.4-11-4.1
		c-13,3.4-21.7,6.5-25.9,9.5c6.3,0.4,14.3,3.2,24,8.2C256,360.1,260,358.3,264.6,357.2z M289.2,344.3c-1.3-7.1-1.4-14.4-0.3-21.8
		c1-7.4,0.1-14.6-2.8-21.8c-11.4-4.2-20-6.9-25.9-8.2l-2.5,1.3c0.4,7.2,0.4,14.3,0,21.5c-0.4,7.2-0.2,13.9,0.6,20.2
		c5,2.1,9.9,4,14.5,5.7c4.6,1.7,9,3.4,13.3,5L289.2,344.3z M308.8,66.9c4.2-1.5,7.6-2.6,10.1-3.5c-4.6-2.1-9.2-3.6-13.6-4.4
		c-4.4-0.8-8.3-2.1-11.7-3.8c-3.4,0.8-6.3,1.9-8.8,3.2c-2.5,1.3-5,1.9-7.6,1.9c-1.7,1.3-3.2,2-4.4,2.2c-1.3,0.2-2.3,0.5-3.2,0.9
		c4.2,1.7,8.2,3.3,12,4.7c3.8,1.5,7.8,2.8,12,4.1C299.5,70.2,304.6,68.4,308.8,66.9z M294.3,292.5c3.8-2.1,7.9-3.5,12.3-4.1
		c4.4-0.6,8.3-2.4,11.7-5.4c-2.9-0.4-6.3-1.2-10.1-2.2c-3.8-1-8.4-2.6-13.9-4.7c-4.6,1.7-9.2,3.1-13.6,4.1c-4.4,1.1-8.1,2.6-11,4.7
		c4.6,0.8,12.6,3.4,24,7.6H294.3z M300,511.5c2.9-2.1,5.8-3.3,8.5-3.5c2.7-0.2,5.4-0.7,7.9-1.6l1.9-2.5c-3.4,0-6.2-0.7-8.5-2.2
		c-2.3-1.5-4.7-2.2-7.3-2.2l-4.4,0.6c0.4,2.1,0.4,4.1,0,6c-0.4,1.9,0,3.7,1.3,5.4H300z M330.9,274.2v-37.9l-3.2-4.4
		c-4.2-1.7-8.5-3.2-12.9-4.4c-4.4-1.3-8.5-2.7-12.3-4.4l-4.4,1.3v39.8c2.1,2.9,3.8,4.6,5,5c7.1,0.8,15.1,3.4,24,7.6L330.9,274.2z
		 M335.9,58.4c3.8-1.3,7.8-2.9,12-5c4.2-2.1,8.2-3.2,12-3.2l-1.3-1.9c-4.6,0-8.9-0.9-12.9-2.8c-4-1.9-7.5-3.3-10.4-4.1
		c-4.6,2.5-9.3,4.2-13.9,5c-4.6,0.8-8.4,2.1-11.4,3.8c4.2,0.8,8.2,2.2,12,4.1c3.8,1.9,7.8,3.3,12,4.1H335.9z M347,220
		c3.6-0.4,7.5-2.1,11.7-5c-16.4-8.8-32.2-8.4-47.3,1.3c4.2,0.8,8.2,2.2,12,4.1c3.8,1.9,7.8,3.3,12,4.1
		C339.5,221.8,343.4,220.4,347,220z M348.6,494.8c4.2-1.5,8-2.6,11.4-3.5c-16-8.4-32.2-8.4-48.6,0c3.4,0.8,7,2,11,3.5
		c4,1.5,8.3,3.3,12.9,5.4C339.9,498.1,344.3,496.3,348.6,494.8z M371.9,207.3v-39.8l-3.2-5c-4.6-1.7-9.2-2.9-13.6-3.8
		c-4.4-0.8-8.5-2.5-12.3-5l-3.2,1.9c0.4,7.6,0.4,14.8,0,21.8c-0.4,6.9,0,13.8,1.3,20.5c5,2.1,9.8,3.8,14.2,5
		c4.4,1.3,8.9,3.2,13.6,5.7L371.9,207.3z M371.9,150.5v-35.3l-2.5-3.2c-5.5,2.5-10.5,4.5-15.1,6c-4.6,1.5-9.5,3.5-14.5,6v15.8
		c1.3,2.5,2.9,4.2,5,5c5.9,0.8,13.9,3.6,24,8.2L371.9,150.5z M388.6,40.4c4.4-1.5,8.7-2.6,12.9-3.5c-2.9-2.5-6.4-3.9-10.4-4.1
		c-4-0.2-7.5-1.6-10.4-4.1c-4.6,0.4-9.4,1.4-14.2,2.8c-4.8,1.5-9.8,3.3-14.8,5.4c4.2,0.8,8.2,2,12,3.5c3.8,1.5,7.8,2.8,12,4.1
		C379.9,43.2,384.2,41.9,388.6,40.4z M388.6,481.2c4.4-0.8,8.7-2.1,12.9-3.8c-4.2-2.1-8.2-3.6-12-4.4c-3.8-0.8-7.4-2.1-10.7-3.8
		c-12.6,2.9-21.2,6.1-25.9,9.5c5.9,0.4,13.7,2.9,23.4,7.6C380.1,483.7,384.2,482.1,388.6,481.2z M419.2,30.6
		c3.8-1.3,7.9-2.7,12.3-4.4c4.4-1.7,8.3-2.7,11.7-3.2c-7.6-3.4-15-5.7-22.4-6.9c-7.4-1.3-14.4,0.2-21.1,4.4
		c-5.9,2.9-8.2,3.8-6.9,2.5c4.2,1.7,8.5,2.9,12.9,3.8c4.4,0.8,8.5,2.5,12.3,5L419.2,30.6z M430.9,467.7c5.3-0.2,9.2-2,11.7-5.4
		c-8.8-2.1-17.3-3.5-25.2-4.1c-8-0.6-16,1.2-24,5.4c4.6,2.5,8.9,4,12.9,4.4c4,0.4,7.9,1.9,11.7,4.4
		C421.3,469.5,425.6,467.9,430.9,467.7z"/>
</g>
</svg>
