<?xml version="1.0" encoding="utf-8"?>
<!-- Generator: Adobe Illustrator 20.1.0, SVG Export Plug-In . SVG Version: 6.00 Build 0)  -->
<svg version="1.1" id="Layer_1" xmlns="http://www.w3.org/2000/svg" xmlns:xlink="http://www.w3.org/1999/xlink" x="0px" y="0px"
	 viewBox="0 0 612 612" style="enable-background:new 0 0 612 612;" xml:space="preserve">
<style type="text/css">
	.st0{fill:#FFFFFF;}
</style>
<g id="Layer_2">
	<g id="Layer_1-2">
		<path class="st0" d="M310.5,276.3c-3.5-18.5-8.1-36.8-13.8-54.7c-4.5-14.5-11.2-28.1-19.9-40.5c-7.4-10.5-17.3-19-28.8-24.7
			c-12.7-5.9-26.6-8.8-40.5-8.5c-13.9-0.2-27.7,2.6-40.5,8.1c-11.3,4.7-22,11-31.6,18.6c-7.9,6.3-14.9,13.6-20.7,21.9
			c-3.9,4.5-6.9,9.8-8.9,15.4c0,4.5-3.6,8.1-8.1,8.1c-0.3,0-0.6,0-0.9,0c-9.3,0.4-18.5-2.5-25.9-8.1c-7.4-5.7-11.8-14.5-11.8-23.9
			c-0.8-3.9-0.8-7.9,0-11.8c15.1-8.6,33.6-17.8,55.5-27.6c21.9-9.7,45.1-19.3,69.7-28.8c22.8-8.3,46.1-15.4,69.7-21.1
			c20.4-5.3,41.4-8.1,62.4-8.5c22-1.2,43.9,2.8,64.1,11.8c14.4,7.4,26,19.2,33.2,33.6c7.7,16,12.2,33.4,13.4,51.1
			c1.6,19.5,3.1,40.4,4.5,62.8c1.9,33.8,4.6,66.3,8.1,97.7c2.7,28.1,7.8,55.9,15,83.1c5.1,20.7,13.6,40.4,25.1,58.4
			c7.9,13.6,22.4,22,38.1,22.3c8.1-0.1,16.2-1.5,23.9-4.1c8.4-2.6,16.7-5.7,24.7-9.3c7.8-3.5,14.9-7.2,21.1-10.9l12.6-7.3
			c5.5-0.5,10.3,3.5,10.9,8.9c-0.3,2.6-1.1,5.1-2.4,7.3c-4.8,3.6-9.8,6.8-15,9.7L562.2,524l-40.5,23.1c-15.1,8.4-30.1,16.1-45,23.1
			c-13.2,6.6-26.7,12.6-40.5,17.8c-9.4,3.9-19.4,6.2-29.6,6.9c-8.6,0-16.8-3.9-22.3-10.5c-7-8.2-12.5-17.5-16.2-27.6
			c-5.1-13.2-9-26.7-11.8-40.5c-4.6-13.8-8.2-28.8-10.9-45c-11.9,10-27,21.8-45.4,35.3c-19.3,14-39.4,26.8-60.4,38.1
			c-21.4,12.4-43.8,23.1-66.9,32c-21,8-43.2,12.2-65.7,12.6c-16,0.3-31.8-2.6-46.6-8.5c-12.5-5.1-23.8-12.7-33.2-22.3
			c-8.9-9.1-15.6-20-19.9-32c-4.6-12.9-6.7-26.5-6.5-40.1c-0.7-19.2,6.3-37.9,19.5-51.9c18.2-17.1,39-31.4,61.6-42.2l50.7-26.4
			l68.9-32.4l65.3-32C286.7,290.6,301.3,282.2,310.5,276.3z M339.3,429.9c-1.9-11.4-3.9-23.5-6.1-36.5c-2.2-13-4.2-25.5-6.1-37.7
			c-1.4-12.2-3.1-22.4-5.3-30.8c-2.2-8.4-3.4-14.1-3.6-17l-33.6,13.8c-13.2,5.4-26.8,11.2-40.5,17.4l-37.7,18.6
			c-10.4,4.9-20.5,10.3-30.4,16.2c-13,8-24.6,18-34.5,29.6c-8,10.1-12.1,22.8-11.8,35.7c-0.2,18.3,5.8,36.2,17,50.7
			c12.9,15.3,32.4,23.5,52.3,21.9c13.8,0,27.5-2.3,40.5-6.9c12.9-4.3,25.5-9.6,37.7-15.8c10.5-5.3,20.7-11.2,30.4-17.8
			c6.1-3.9,12-8.2,17.4-13c5.4-5.1,9.6-9.6,12.6-13.4C340.1,440.3,340.7,435,339.3,429.9z"/>
	</g>
</g>
</svg>
