<?xml version="1.0" encoding="utf-8"?>
<!-- Generator: Adobe Illustrator 20.1.0, SVG Export Plug-In . SVG Version: 6.00 Build 0)  -->
<svg version="1.1" id="Layer_1" xmlns="http://www.w3.org/2000/svg" xmlns:xlink="http://www.w3.org/1999/xlink" x="0px" y="0px"
	 viewBox="0 0 612 612" style="enable-background:new 0 0 612 612;" xml:space="preserve">
<style type="text/css">
	.st0{fill:#FFFFFF;}
</style>
<g>
	<path class="st0" d="M532.5,434.9V507c-25.4,28.3-51.6,50.6-78.5,67c-26.9,16.4-50.8,24.6-71.7,24.6c-16.4,0-30.5-7.3-42.4-22.1
		c-11.9-14.7-17.8-32.8-17.8-54.3c0-22.6,7.6-54.6,22.9-95.9c15.3-41.3,22.9-70.1,22.9-86.5c0-11.9-4.8-17.8-14.4-17.8
		c-15.8,0-37.3,10.7-64.5,32.2c-27.1,21.5-57.7,52.3-91.6,92.5c-1.7,14.7-2.8,26.3-3.4,34.8c-0.6,8.5-0.8,20.6-0.8,36.5l2.5,77.2
		h-66.2c-0.6-3.4-2.4-23-5.5-59c-3.1-35.9-4.7-54.7-4.7-56.4c0-44.1,8.2-101.2,24.6-171.3c18.7-80.3,42.1-146.7,70.4-199.3
		c33.9-63.9,70.1-95.9,108.6-95.9c18.7,0,33.9,7.6,45.8,22.9c11.9,15.3,17.8,34.8,17.8,58.5c0,56.6-30.3,124.4-90.8,203.6
		c26-16.4,44.8-27,56.4-31.8c11.6-4.8,23-7.2,34.4-7.2c15.3,0,27.1,6.2,35.6,18.7c8.5,12.4,12.7,30.3,12.7,53.4
		c0,22.6-7.4,54.6-22.1,95.9c-14.7,41.3-22.1,72.1-22.1,92.5c0,12.4,4.5,18.7,13.6,18.7C431.6,538.4,474.2,503.9,532.5,434.9z
		 M334,100.7c0-20.9-5.7-31.4-17-31.4c-18.7,0-40.6,34.1-65.7,102.2c-25.2,68.2-41.7,131.6-49.6,190.4
		c46.4-61.1,80-112.1,100.9-153.1C323.5,167.9,334,131.8,334,100.7z"/>
</g>
</svg>
