<?xml version="1.0" encoding="utf-8"?>
<!-- Generator: Adobe Illustrator 20.1.0, SVG Export Plug-In . SVG Version: 6.00 Build 0)  -->
<svg version="1.1" id="Layer_1" xmlns="http://www.w3.org/2000/svg" xmlns:xlink="http://www.w3.org/1999/xlink" x="0px" y="0px"
	 viewBox="0 0 612 612" style="enable-background:new 0 0 612 612;" xml:space="preserve">
<style type="text/css">
	.st0{fill:#FFFFFF;}
</style>
<g>
	<path class="st0" d="M289.2,321.6l-17.5-46.4c-12.8-32.8-19.8-50.5-20.9-53.2l-27.2-60.5c-19.2-43.4-37.7-65.1-55.4-65.1
		c-26.8,0-47.9,25.1-63.4,75.2c-11.3-4.1-17-10.2-17-18.1c0-23.4,13.6-50.2,40.7-80.3c27.1-30.2,51.4-45.3,72.9-45.3
		c42.2,0,85.9,60.7,131.1,182.2l11.6,29.9l13-20.9c80.3-127.5,148-191.2,203.1-191.2c14.3,0,31.1,4.2,50.3,12.4L542,112.2
		c-9.1-2.6-15.5-4-19.3-4c-41.5,0-91,47.7-148.3,143.1L358,278.9l13,34.8C420.5,450.5,461.4,519,493.6,519
		c29.6,0,52.1-21.1,67.7-63.4c10.6,6.8,15.8,13.8,15.8,20.9c0,18.9-15.1,41.5-45.3,67.9c-30.2,26.4-56.2,39.6-78.1,39.6
		c-43.8,0-88.4-61.7-134.1-185l-15.8-41.9L287.5,386c-76.9,132-150.5,198-220.6,198c-26.4,0-48.8-6.5-67.3-19.6l65.6-64.1
		c11.3,11.3,24.5,17,39.6,17c42.6,0,90.5-43.1,143.7-129.4l29.4-47.7L289.2,321.6z"/>
</g>
</svg>
