<?xml version="1.0" encoding="utf-8"?>
<!-- Generator: Adobe Illustrator 20.1.0, SVG Export Plug-In . SVG Version: 6.00 Build 0)  -->
<svg version="1.1" id="Layer_1" xmlns="http://www.w3.org/2000/svg" xmlns:xlink="http://www.w3.org/1999/xlink" x="0px" y="0px"
	 viewBox="0 0 612 612" style="enable-background:new 0 0 612 612;" xml:space="preserve">
<style type="text/css">
	.st0{fill:#FFFFFF;}
</style>
<g>
	<path class="st0" d="M486.3,128.1c28,56-25.3,126.6-52,198.6c-5.3,16-10.7,20-28,10.7c-32-16-50.7-56-32-116
		c14.7-48,54.7-105.3,36-120c-22.7-18.7-122.6,66.7-182.6,188c-73.3,150.6-45.3,261.3,33.3,262.6c112,1.3,208-105.3,262.6-189.3
		c6.7-10.7,18.7-12,24,1.3c4,10.7-1.3,44-24,80c-50.7,78.7-156,144-257.3,145.3C97,592.1,39.7,426.8,126.3,254.8
		c85.3-168,220-240,286.6-200C449,76.2,470.3,97.5,486.3,128.1z"/>
</g>
</svg>
