<?xml version="1.0" encoding="utf-8"?>
<!-- Generator: Adobe Illustrator 20.1.0, SVG Export Plug-In . SVG Version: 6.00 Build 0)  -->
<svg version="1.1" id="Layer_1" xmlns="http://www.w3.org/2000/svg" xmlns:xlink="http://www.w3.org/1999/xlink" x="0px" y="0px"
	 viewBox="0 0 612 612" style="enable-background:new 0 0 612 612;" xml:space="preserve">
<style type="text/css">
	.st0{fill:#FFFFFF;}
</style>
<g>
	<path class="st0" d="M503.1,44.3c1.3,4.6-1.1,13.6-7.1,27c-6,13.4-9,21-9,22.8v450.8c0,15.2,1.6,24.7,4.7,28.4
		c9.5,12,12.3,20.1,8.5,24.2c-3.2,3.7-11.4,5.5-24.6,5.5c-14.5,0-36.6-2.1-66.2-6.2c-33.4-5.1-51.1-7.6-53-7.6
		c-11.4-0.9-19.6-6.5-24.6-16.6c-0.6-0.9-0.9-3.9-0.9-9c0-18.9,3.5-47,10.4-84.4c-15.1,22.1-30,44.3-44.5,66.4
		c-20.8,27.2-39.4,39.6-55.8,37.3C116.8,564.5,54.7,508.7,54.7,415.6c0-53,19.9-106.9,59.6-161.8c38.5-53,80.7-87.6,126.8-103.7
		c6.3-2.3,12.3-3.5,18-3.5c15.8,0,43.2,14.3,82.3,42.9V55.3c-0.6-3.7-3.5-10.3-8.5-19.7c-5.1-9.4-7.6-16.5-7.6-21.1
		c0-9.7,8.8-14.5,26.5-14.5c15.8,0,38.5,3.2,68.1,9.7c18.9,4.6,37.5,9,55.8,13.1C491.5,26.1,500.6,33.2,503.1,44.3z M338.5,222.7
		c-35.3,11.5-67.3,36.9-96,76.1c-28.7,39.2-43,75.6-43,109.3c0,39.2,20.8,60.6,62.4,64.3C283.9,474.1,309.5,390.9,338.5,222.7z"/>
</g>
</svg>
