<?xml version="1.0" encoding="utf-8"?>
<!-- Generator: Adobe Illustrator 20.1.0, SVG Export Plug-In . SVG Version: 6.00 Build 0)  -->
<svg version="1.1" id="Layer_1" xmlns="http://www.w3.org/2000/svg" xmlns:xlink="http://www.w3.org/1999/xlink" x="0px" y="0px"
	 viewBox="0 0 612 612" style="enable-background:new 0 0 612 612;" xml:space="preserve">
<style type="text/css">
	.st0{fill:#FFFFFF;}
</style>
<g>
	<path class="st0" d="M253.3,243.4c10.9-17.6,27.9-31.5,51.1-41.6c23.1-10.1,50.3-15.2,81.5-15.2c24.9,0,48.6,3.3,70.9,9.7
		c22.3,6.5,42,17.7,58.9,33.5s30.3,37.1,40.1,63.9c9.9,26.8,14.8,60.4,14.8,100.9c0,43.1-5.1,78.7-15.2,106.7
		c-10.1,28-23.7,50.3-40.8,66.6c-17.1,16.4-37.3,27.8-60.7,34.3c-23.3,6.5-48.2,9.7-74.7,9.7c-21.8,0-41.2-2.9-58.3-8.6
		c-17.1-5.7-31.8-12.8-43.9-21.4c-12.2-8.6-21.9-17.6-29.2-27.2c-7.3-9.6-11.9-18.5-14-26.8l-24.1,70.8h-63V79.3
		c0-23.3-22.3-35-66.9-35V0h173.4V243.4z M355.1,240.3c-20.2,0-37.5,3.9-51.7,11.7c-14.3,7.8-25.8,18.7-34.6,32.7
		c-8.8,14-15.2,30.6-19.1,49.8c-3.9,19.2-5.8,40.4-5.8,63.8c0,23.3,1.9,44.7,5.8,64.2c3.9,19.4,10.2,36,19.1,49.8
		c8.8,13.7,20.3,24.5,34.6,32.3c14.3,7.8,31.5,11.7,51.7,11.7s37.3-3.9,51.3-11.7c14-7.8,25.5-18.5,34.6-32.3
		c9.1-13.7,15.6-30.3,19.4-49.8c3.9-19.4,5.8-40.8,5.8-64.2c0-23.3-1.9-44.6-5.8-63.8c-3.9-19.2-10.4-35.8-19.4-49.8
		c-9.1-14-20.6-24.9-34.6-32.7C392.5,244.2,375.4,240.3,355.1,240.3z"/>
</g>
</svg>
